<svg width="21" height="21" viewBox="0 0 21 21" fill="none" xmlns="http://www.w3.org/2000/svg">
    <path
        d="M3.92984 18.07C2.97473 17.1475 2.21291 16.044 1.68882 14.824C1.16473 13.604 0.888869 12.2918 0.877331 10.964C0.865793 9.63618 1.11881 8.31938 1.62162 7.09042C2.12443 5.86145 2.86696 4.74493 3.80589 3.80601C4.74481 2.86708 5.86133 2.12455 7.09029 1.62174C8.31926 1.11893 9.63605 0.865915 10.9638 0.877453C12.2916 0.888991 13.6038 1.16485 14.8239 1.68894C16.0439 2.21303 17.1474 2.97486 18.0698 3.92996C19.8914 5.81598 20.8994 8.342 20.8766 10.964C20.8538 13.5859 19.8021 16.0941 17.948 17.9481C16.0939 19.8022 13.5858 20.8539 10.9638 20.8767C8.34188 20.8995 5.81586 19.8915 3.92984 18.07ZM12.3998 11L15.2298 8.16996L13.8198 6.75996L10.9998 9.58996L8.16984 6.75996L6.75984 8.16996L9.58984 11L6.75984 13.83L8.16984 15.24L10.9998 12.41L13.8298 15.24L15.2398 13.83L12.4098 11H12.3998Z"
        fill="#000000" />
</svg>