<svg width="30" height="30" viewBox="0 0 30 30" fill="none" xmlns="http://www.w3.org/2000/svg">
<circle cx="15" cy="15" r="15" fill="black"/>
<path d="M13.5 22.44C12.75 22.8 11.9 23 11 23C7.69 23 5 20.31 5 17V12C5 8.69 7.69 6 11 6L13.5 10.58C11.1 11.81 9.5 14 9.5 16.5C9.5 19 11.11 21.2 13.5 22.44ZM19 21.94V23H20C20.55 23 21 23.45 21 24C21 24.55 20.55 25 20 25H17C16.45 25 16 24.55 16 24C16 23.45 16.45 23 17 23V21.94C13.61 21.56 11 19.27 11 16.5C11 13.46 14.13 11 18 11H18.56C17.84 9.63 17 8.23 17 7C17 5.9 17.9 5 19 5C21.21 5 23 6.79 23 9H21C21 9 25 12 25 16.5C25 19.27 22.39 21.56 19 21.94ZM19 7C19 7.55 19.45 8 20 8C20.55 8 21 7.55 21 7C21 6.45 20.55 6 20 6C19.45 6 19 6.45 19 7ZM20 15C20 14.4696 19.7893 13.9609 19.4142 13.5858C19.0391 13.2107 18.5304 13 18 13C15.79 13 14 14.79 14 17H18C19.11 17 20 16.11 20 15Z" fill="#FFF000"/>
</svg>
